<svg id="kity_svg_6" xmlns="http://www.w3.org/2000/svg" xmlns:xlink="http://www.w3.org/1999/xlink" version="1.1" width="1179" height="616" style="background: rgb(251, 251, 251); visibility: visible;" viewBox="0 0 1179 616"><defs id="kity_defs_7"><linearGradient id="kity_linearGradient_17" x1="0" y1="0" x2="0" y2="1"><stop id="kity_stop_18" offset="0" stop-color="rgb(255, 255, 255)"></stop><stop id="kity_stop_19" offset="1" stop-color="rgb(204, 204, 204)"></stop></linearGradient><marker id="kity_marker_2" orient="auto" refX="6" refY="0" viewBox="-7 -7 14 14" markerWidth="7" markerHeight="7" markerUnits="userSpaceOnUse"><path id="kity_path_3" fill="rgb(191, 115, 115)" stroke="none" d="M6,0A6,6,0,1,1,-6,0A6,6,0,1,1,6,0"></path></marker></defs><g id="kity_g_8"><g id="minder1" text-rendering="optimize-speed"><g id="minder_connect_group1"><path id="kity_path_31" fill="none" stroke="rgb(191, 115, 115)" stroke-width="1" d="M136.5,324.5A234,53,0,0,1,370.5,271.5"></path><path id="kity_path_33" fill="none" stroke="rgb(191, 115, 115)" stroke-width="1" d="M566.5,271.5C586.5,271.5,586.5,239.5,606.5,239.5"></path><path id="kity_path_35" fill="none" stroke="rgb(191, 115, 115)" stroke-width="1" d="M566.5,271.5C586.5,271.5,586.5,303.5,606.5,303.5"></path><path id="kity_path_39" fill="none" stroke="rgb(191, 115, 115)" stroke-width="1" d="M136.5,324.5A234,85,0,0,0,370.5,409.5"></path><path id="kity_path_41" fill="none" stroke="rgb(191, 115, 115)" stroke-width="1" d="M543.5,409.5C563.5,409.5,563.5,377.5,583.5,377.5"></path><path id="kity_path_43" fill="none" stroke="rgb(191, 115, 115)" stroke-width="1" d="M543.5,409.5C563.5,409.5,563.5,441.5,583.5,441.5"></path><path id="kity_path_55" fill="none" stroke="rgb(191, 115, 115)" stroke-width="1" d="M136.5,324.5A234,223,0,0,1,370.5,101.5"></path><path id="kity_path_63" fill="none" stroke="rgb(191, 115, 115)" stroke-width="1" d="M136.5,324.5A234,223,0,0,0,370.5,547.5"></path><path id="kity_path_223" fill="none" stroke="rgb(191, 115, 115)" stroke-width="1" d="M547.5,547.5C567.5,547.5,567.5,515.5,587.5,515.5"></path><path id="kity_path_231" fill="none" stroke="rgb(191, 115, 115)" stroke-width="1" d="M547.5,547.5C567.5,547.5,567.5,579.5,587.5,579.5"></path><path id="kity_path_308" fill="none" stroke="rgb(191, 115, 115)" stroke-width="1" d="M569.5,101.5C589.5,101.5,589.5,37.5,609.5,37.5"></path><path id="kity_path_309" fill="none" stroke="rgb(191, 115, 115)" stroke-width="1" d="M569.5,101.5C589.5,101.5,589.5,101.5,609.5,101.5"></path><path id="kity_path_310" fill="none" stroke="rgb(191, 115, 115)" stroke-width="1" d="M569.5,101.5C589.5,101.5,589.5,165.5,609.5,165.5"></path><path id="kity_path_312" fill="none" stroke="rgb(191, 115, 115)" stroke-width="1" d="M762.5,37.5C782.5,37.5,782.5,37.5,802.5,37.5"></path><path id="kity_path_320" fill="none" stroke="rgb(191, 115, 115)" stroke-width="1" d="M753.5,101.5C773.5,101.5,773.5,101.5,793.5,101.5"></path><path id="kity_path_328" fill="none" stroke="rgb(191, 115, 115)" stroke-width="1" d="M761.5,165.5C781.5,165.5,781.5,165.5,801.5,165.5"></path><path id="kity_path_336" fill="none" stroke="rgb(191, 115, 115)" stroke-width="1" d="M806.5,239.5C826.5,239.5,826.5,239.5,846.5,239.5"></path><path id="kity_path_344" fill="none" stroke="rgb(191, 115, 115)" stroke-width="1" d="M781.5,303.5C801.5,303.5,801.5,303.5,821.5,303.5"></path><path id="kity_path_352" fill="none" stroke="rgb(191, 115, 115)" stroke-width="1" d="M795.5,377.5C815.5,377.5,815.5,377.5,835.5,377.5"></path><path id="kity_path_360" fill="none" stroke="rgb(191, 115, 115)" stroke-width="1" d="M781.5,515.5C801.5,515.5,801.5,515.5,821.5,515.5"></path></g><g id="minder_node1"><path id="node_outline1" fill="rgb(191, 115, 115)" stroke="rgb(191, 115, 115)" d="M25.5,300.5h222a5,5,0,0,1,5,5v38a5,5,0,0,1,-5,5h-222a5,5,0,0,1,-5,-5v-38a5,5,0,0,1,5,-5z" stroke-width="3"></path><g id="node_text1" fill="white"><text id="kity_text_22" text-rendering="inherit" font-size="24" dy=".8em" y="308.90000009536743" font-family="微软雅黑,Microsoft YaHei" x="74.5">UIFramework</text></g><g id="node_priority1"><path id="kity_path_240" fill="#840023" stroke="none" d="M45,328c0,3.866,3.134,7,7,7h6c3.866,0,7,-3.134,7,-7V322H45V328z"></path><path id="kity_path_241" fill="#FF1200" stroke="none" d="M65,325c0,3.866,-3.134,7,-7,7H52c-3.866,0,-7,-3.134,-7,-7V322c0,-3.866,3.134,-7,7,-7h6c3.866,0,7,3.134,7,7V325z" opacity="0.8"></path><text id="kity_text_242" text-rendering="geometricPrecision" x="54" y="324.5" text-anchor="middle" font-style="italic" font-size="12" fill="white" dy="5">1</text></g></g><g id="kity_g_14" display="none"><path id="kity_path_15" fill="rgba(153, 0, 0, 0.5)" stroke="none" d="M334.5,58.5h162v20h-162z"></path><path id="kity_path_16" fill="none" stroke="rgb(128, 0, 0)" d="M334.5,78.5L496.5,78.5" stroke-width="1"></path></g><g id="minder_node2"><g id="node_expander4" style="cursor: pointer;"><path id="kity_path_160" fill="white" stroke="gray" d="M371.5,271.5A6,6,0,1,1,359.5,271.5A6,6,0,1,1,371.5,271.5"></path><path id="kity_path_161" fill="none" stroke="gray" d="M361,271.5L370,271.5"></path></g><path id="node_outline5" fill="rgb(246, 238, 238)" stroke="rgb(191, 115, 115)" d="M375.5,253.5h188a3,3,0,0,1,3,3v30a3,3,0,0,1,-3,3h-188a3,3,0,0,1,-3,-3v-30a3,3,0,0,1,3,-3z" stroke-width="1"></path><g id="node_text5" fill="black"><text id="kity_text_85" text-rendering="inherit" font-size="24" dy=".8em" y="255.90000009536743" font-family="微软雅黑,Microsoft YaHei" x="417.5">UIManager</text></g><g id="node_priority12"><path id="kity_path_295" fill="#01467F" stroke="none" d="M393,275c0,3.866,3.134,7,7,7h6c3.866,0,7,-3.134,7,-7V269H393V275z"></path><path id="kity_path_296" fill="#0074FF" stroke="none" d="M413,272c0,3.866,-3.134,7,-7,7H400c-3.866,0,-7,-3.134,-7,-7V269c0,-3.866,3.134,-7,7,-7h6c3.866,0,7,3.134,7,7V272z" opacity="0.8"></path><text id="kity_text_297" text-rendering="geometricPrecision" x="402" y="271.5" text-anchor="middle" font-style="italic" font-size="12" fill="white" dy="5">2</text></g></g><g id="minder_node3"><g id="node_expander1" style="cursor: pointer;"><path id="kity_path_151" fill="white" stroke="gray" d="M606.5,239.5A6,6,0,1,1,594.5,239.5A6,6,0,1,1,606.5,239.5"></path><path id="kity_path_152" fill="none" stroke="gray" d="M596,239.5L605,239.5"></path></g><path id="node_outline2" fill="none" stroke="none" d="M611.5,222.5h190a5,5,0,0,1,5,5v24a5,5,0,0,1,-5,5h-190a5,5,0,0,1,-5,-5v-24a5,5,0,0,1,5,-5z" stroke-width="3"></path><g id="node_text2" fill="black"><text id="kity_text_79" text-rendering="inherit" font-size="24" dy=".8em" y="223.90000009536743" font-family="微软雅黑,Microsoft YaHei" x="641.5">UIManager.cs</text></g><g id="node_priority14"><path id="kity_path_305" fill="#006300" stroke="none" d="M617,243c0,3.866,3.134,7,7,7h6c3.866,0,7,-3.134,7,-7V237H617V243z"></path><path id="kity_path_306" fill="#00AF00" stroke="none" d="M637,240c0,3.866,-3.134,7,-7,7H624c-3.866,0,-7,-3.134,-7,-7V237c0,-3.866,3.134,-7,7,-7h6c3.866,0,7,3.134,7,7V240z" opacity="0.8"></path><text id="kity_text_307" text-rendering="geometricPrecision" x="626" y="239.5" text-anchor="middle" font-style="italic" font-size="12" fill="white" dy="5">3</text></g></g><g id="minder_node4"><g id="node_expander2" style="cursor: pointer;"><path id="kity_path_154" fill="white" stroke="gray" d="M606.5,303.5A6,6,0,1,1,594.5,303.5A6,6,0,1,1,606.5,303.5"></path><path id="kity_path_155" fill="none" stroke="gray" d="M596,303.5L605,303.5"></path></g><path id="node_outline3" fill="none" stroke="none" d="M611.5,286.5h165a5,5,0,0,1,5,5v24a5,5,0,0,1,-5,5h-165a5,5,0,0,1,-5,-5v-24a5,5,0,0,1,5,-5z" stroke-width="3"></path><g id="node_text3" fill="black"><text id="kity_text_81" text-rendering="inherit" font-size="24" dy=".8em" y="287.90000009536743" font-family="微软雅黑,Microsoft YaHei" x="641.5">UILoader.cs</text></g><g id="node_priority13"><path id="kity_path_300" fill="#006300" stroke="none" d="M617,307c0,3.866,3.134,7,7,7h6c3.866,0,7,-3.134,7,-7V301H617V307z"></path><path id="kity_path_301" fill="#00AF00" stroke="none" d="M637,304c0,3.866,-3.134,7,-7,7H624c-3.866,0,-7,-3.134,-7,-7V301c0,-3.866,3.134,-7,7,-7h6c3.866,0,7,3.134,7,7V304z" opacity="0.8"></path><text id="kity_text_302" text-rendering="geometricPrecision" x="626" y="303.5" text-anchor="middle" font-style="italic" font-size="12" fill="white" dy="5">3</text></g></g><g id="minder_node6"><g id="node_expander8" style="cursor: pointer;"><path id="kity_path_172" fill="white" stroke="gray" d="M371.5,409.5A6,6,0,1,1,359.5,409.5A6,6,0,1,1,371.5,409.5"></path><path id="kity_path_173" fill="none" stroke="gray" d="M361,409.5L370,409.5"></path></g><path id="node_outline9" fill="rgb(246, 238, 238)" stroke="rgb(191, 115, 115)" d="M375.5,391.5h165a3,3,0,0,1,3,3v30a3,3,0,0,1,-3,3h-165a3,3,0,0,1,-3,-3v-30a3,3,0,0,1,3,-3z" stroke-width="1"></path><g id="node_text9" fill="black"><text id="kity_text_93" text-rendering="inherit" font-size="24" dy=".8em" y="393.90000009536743" font-family="微软雅黑,Microsoft YaHei" x="417.5">UICanvas</text></g><g id="node_priority9"><path id="kity_path_280" fill="#01467F" stroke="none" d="M393,413c0,3.866,3.134,7,7,7h6c3.866,0,7,-3.134,7,-7V407H393V413z"></path><path id="kity_path_281" fill="#0074FF" stroke="none" d="M413,410c0,3.866,-3.134,7,-7,7H400c-3.866,0,-7,-3.134,-7,-7V407c0,-3.866,3.134,-7,7,-7h6c3.866,0,7,3.134,7,7V410z" opacity="0.8"></path><text id="kity_text_282" text-rendering="geometricPrecision" x="402" y="409.5" text-anchor="middle" font-style="italic" font-size="12" fill="white" dy="5">2</text></g></g><g id="minder_node7"><g id="node_expander5" style="cursor: pointer;"><path id="kity_path_163" fill="white" stroke="gray" d="M583.5,377.5A6,6,0,1,1,571.5,377.5A6,6,0,1,1,583.5,377.5"></path><path id="kity_path_164" fill="none" stroke="gray" d="M573,377.5L582,377.5"></path></g><path id="node_outline6" fill="none" stroke="none" d="M588.5,360.5h202a5,5,0,0,1,5,5v24a5,5,0,0,1,-5,5h-202a5,5,0,0,1,-5,-5v-24a5,5,0,0,1,5,-5z" stroke-width="3"></path><g id="node_text6" fill="black"><text id="kity_text_87" text-rendering="inherit" font-size="24" dy=".8em" y="361.90000009536743" font-family="微软雅黑,Microsoft YaHei" x="618.5">MainCanvas.cs</text></g><g id="node_priority11"><path id="kity_path_290" fill="#006300" stroke="none" d="M594,381c0,3.866,3.134,7,7,7h6c3.866,0,7,-3.134,7,-7V375H594V381z"></path><path id="kity_path_291" fill="#00AF00" stroke="none" d="M614,378c0,3.866,-3.134,7,-7,7H601c-3.866,0,-7,-3.134,-7,-7V375c0,-3.866,3.134,-7,7,-7h6c3.866,0,7,3.134,7,7V378z" opacity="0.8"></path><text id="kity_text_292" text-rendering="geometricPrecision" x="603" y="377.5" text-anchor="middle" font-style="italic" font-size="12" fill="white" dy="5">3</text></g></g><g id="minder_node8"><g id="node_expander6" style="cursor: pointer;" display="none"><path id="kity_path_166" fill="white" stroke="gray" d="M583.5,441.5A6,6,0,1,1,571.5,441.5A6,6,0,1,1,583.5,441.5"></path><path id="kity_path_167" fill="none" stroke="gray"></path></g><path id="node_outline7" fill="none" stroke="none" d="M588.5,424.5h64a5,5,0,0,1,5,5v24a5,5,0,0,1,-5,5h-64a5,5,0,0,1,-5,-5v-24a5,5,0,0,1,5,-5z" stroke-width="3"></path><g id="node_text7" fill="black"><text id="kity_text_89" text-rendering="inherit" font-size="24" dy=".8em" y="425.90000009536743" font-family="微软雅黑,Microsoft YaHei" x="618.5">.....</text></g><g id="node_priority10"><path id="kity_path_285" fill="#006300" stroke="none" d="M594,445c0,3.866,3.134,7,7,7h6c3.866,0,7,-3.134,7,-7V439H594V445z"></path><path id="kity_path_286" fill="#00AF00" stroke="none" d="M614,442c0,3.866,-3.134,7,-7,7H601c-3.866,0,-7,-3.134,-7,-7V439c0,-3.866,3.134,-7,7,-7h6c3.866,0,7,3.134,7,7V442z" opacity="0.8"></path><text id="kity_text_287" text-rendering="geometricPrecision" x="603" y="441.5" text-anchor="middle" font-style="italic" font-size="12" fill="white" dy="5">3</text></g></g><g id="minder_node14" opacity="1"><g id="node_expander16" style="cursor: pointer;"><path id="kity_path_196" fill="white" stroke="gray" d="M371.5,101.5A6,6,0,1,1,359.5,101.5A6,6,0,1,1,371.5,101.5"></path><path id="kity_path_197" fill="none" stroke="gray" d="M361,101.5L370,101.5"></path></g><path id="node_outline17" fill="rgb(246, 238, 238)" stroke="rgb(191, 115, 115)" d="M375.5,83.5h191a3,3,0,0,1,3,3v30a3,3,0,0,1,-3,3h-191a3,3,0,0,1,-3,-3v-30a3,3,0,0,1,3,-3z" stroke-width="1"></path><g id="node_text17" fill="black"><text id="kity_text_109" text-rendering="inherit" font-size="24" dy=".8em" y="85.90000009536743" font-family="微软雅黑,Microsoft YaHei" x="417.5">UIBaseData</text></g><g id="node_priority5"><path id="kity_path_260" fill="#01467F" stroke="none" d="M393,105c0,3.866,3.134,7,7,7h6c3.866,0,7,-3.134,7,-7V99H393V105z"></path><path id="kity_path_261" fill="#0074FF" stroke="none" d="M413,102c0,3.866,-3.134,7,-7,7H400c-3.866,0,-7,-3.134,-7,-7V99c0,-3.866,3.134,-7,7,-7h6c3.866,0,7,3.134,7,7V102z" opacity="0.8"></path><text id="kity_text_262" text-rendering="geometricPrecision" x="402" y="101.5" text-anchor="middle" font-style="italic" font-size="12" fill="white" dy="5">2</text></g></g><g id="minder_node18"><g id="node_expander20" style="cursor: pointer;"><path id="kity_path_208" fill="white" stroke="gray" d="M371.5,547.5A6,6,0,1,1,359.5,547.5A6,6,0,1,1,371.5,547.5"></path><path id="kity_path_209" fill="none" stroke="gray" d="M361,547.5L370,547.5"></path></g><path id="node_outline21" fill="rgb(246, 238, 238)" stroke="rgb(191, 115, 115)" d="M375.5,529.5h169a3,3,0,0,1,3,3v30a3,3,0,0,1,-3,3h-169a3,3,0,0,1,-3,-3v-30a3,3,0,0,1,3,-3z" stroke-width="1"></path><g id="node_text21" fill="black"><text id="kity_text_117" text-rendering="inherit" font-size="24" dy=".8em" y="531.9000000953674" font-family="微软雅黑,Microsoft YaHei" x="417.5">Extension</text></g><g id="node_priority2"><path id="kity_path_245" fill="#01467F" stroke="none" d="M393,551c0,3.866,3.134,7,7,7h6c3.866,0,7,-3.134,7,-7V545H393V551z"></path><path id="kity_path_246" fill="#0074FF" stroke="none" d="M413,548c0,3.866,-3.134,7,-7,7H400c-3.866,0,-7,-3.134,-7,-7V545c0,-3.866,3.134,-7,7,-7h6c3.866,0,7,3.134,7,7V548z" opacity="0.8"></path><text id="kity_text_247" text-rendering="geometricPrecision" x="402" y="547.5" text-anchor="middle" font-style="italic" font-size="12" fill="white" dy="5">2</text></g></g><g id="minder_node26"><g id="node_expander25" style="cursor: pointer;"><path id="kity_path_228" fill="white" stroke="gray" d="M587.5,515.5A6,6,0,1,1,575.5,515.5A6,6,0,1,1,587.5,515.5"></path><path id="kity_path_229" fill="none" stroke="gray" d="M577,515.5L586,515.5"></path></g><path id="node_outline26" fill="none" stroke="none" d="M592.5,498.5h184a5,5,0,0,1,5,5v24a5,5,0,0,1,-5,5h-184a5,5,0,0,1,-5,-5v-24a5,5,0,0,1,5,-5z" stroke-width="3"></path><g id="node_text26" fill="black"><text id="kity_text_225" text-rendering="inherit" font-size="24" dy=".8em" y="499.90000009536743" font-family="微软雅黑,Microsoft YaHei" x="622.5">ListExtension</text></g><g id="node_priority4"><path id="kity_path_255" fill="#006300" stroke="none" d="M598,519c0,3.866,3.134,7,7,7h6c3.866,0,7,-3.134,7,-7V513H598V519z"></path><path id="kity_path_256" fill="#00AF00" stroke="none" d="M618,516c0,3.866,-3.134,7,-7,7H605c-3.866,0,-7,-3.134,-7,-7V513c0,-3.866,3.134,-7,7,-7h6c3.866,0,7,3.134,7,7V516z" opacity="0.8"></path><text id="kity_text_257" text-rendering="geometricPrecision" x="607" y="515.5" text-anchor="middle" font-style="italic" font-size="12" fill="white" dy="5">3</text></g></g><g id="minder_node27"><g id="node_expander26" style="cursor: pointer;" display="none"><path id="kity_path_236" fill="white" stroke="gray" d="M587.5,579.5A6,6,0,1,1,575.5,579.5A6,6,0,1,1,587.5,579.5"></path><path id="kity_path_237" fill="none" stroke="gray"></path></g><path id="node_outline27" fill="none" stroke="none" d="M592.5,562.5h58a5,5,0,0,1,5,5v24a5,5,0,0,1,-5,5h-58a5,5,0,0,1,-5,-5v-24a5,5,0,0,1,5,-5z" stroke-width="3"></path><g id="node_text27" fill="black"><text id="kity_text_233" text-rendering="inherit" font-size="24" dy=".8em" y="563.9000000953674" font-family="微软雅黑,Microsoft YaHei" x="622.5">....</text></g><g id="node_priority3"><path id="kity_path_250" fill="#006300" stroke="none" d="M598,583c0,3.866,3.134,7,7,7h6c3.866,0,7,-3.134,7,-7V577H598V583z"></path><path id="kity_path_251" fill="#00AF00" stroke="none" d="M618,580c0,3.866,-3.134,7,-7,7H605c-3.866,0,-7,-3.134,-7,-7V577c0,-3.866,3.134,-7,7,-7h6c3.866,0,7,3.134,7,7V580z" opacity="0.8"></path><text id="kity_text_252" text-rendering="geometricPrecision" x="607" y="579.5" text-anchor="middle" font-style="italic" font-size="12" fill="white" dy="5">3</text></g></g><g id="kity_g_12" display="none"><path id="kity_path_13" fill="none" stroke="rgb(112, 66, 66)" d="M337.5,83.5h156a3,3,0,0,1,3,3v26a3,3,0,0,1,-3,3h-156a3,3,0,0,1,-3,-3v-26a3,3,0,0,1,3,-3z" stroke-width="5"></path></g><g id="minder_node15"><g id="node_expander13" style="cursor: pointer;"><path id="kity_path_187" fill="white" stroke="gray" d="M609.5,37.5A6,6,0,1,1,597.5,37.5A6,6,0,1,1,609.5,37.5"></path><path id="kity_path_188" fill="none" stroke="gray" d="M599,37.5L608,37.5"></path></g><path id="node_outline14" fill="none" stroke="none" d="M614.5,20.5h143a5,5,0,0,1,5,5v24a5,5,0,0,1,-5,5h-143a5,5,0,0,1,-5,-5v-24a5,5,0,0,1,5,-5z" stroke-width="3"></path><g id="node_text14" fill="black"><text id="kity_text_103" text-rendering="inherit" font-size="24" dy=".8em" y="21.90000009536743" font-family="微软雅黑,Microsoft YaHei" x="644.5">UIType.cs</text></g><g id="node_priority8"><path id="kity_path_275" fill="#006300" stroke="none" d="M620,41c0,3.866,3.134,7,7,7h6c3.866,0,7,-3.134,7,-7V35H620V41z"></path><path id="kity_path_276" fill="#00AF00" stroke="none" d="M640,38c0,3.866,-3.134,7,-7,7H627c-3.866,0,-7,-3.134,-7,-7V35c0,-3.866,3.134,-7,7,-7h6c3.866,0,7,3.134,7,7V38z" opacity="0.8"></path><text id="kity_text_277" text-rendering="geometricPrecision" x="629" y="37.5" text-anchor="middle" font-style="italic" font-size="12" fill="white" dy="5">3</text></g></g><g id="minder_node16"><g id="node_expander14" style="cursor: pointer;"><path id="kity_path_190" fill="white" stroke="gray" d="M609.5,101.5A6,6,0,1,1,597.5,101.5A6,6,0,1,1,609.5,101.5"></path><path id="kity_path_191" fill="none" stroke="gray" d="M599,101.5L608,101.5"></path></g><path id="node_outline15" fill="none" stroke="none" d="M614.5,84.5h134a5,5,0,0,1,5,5v24a5,5,0,0,1,-5,5h-134a5,5,0,0,1,-5,-5v-24a5,5,0,0,1,5,-5z" stroke-width="3"></path><g id="node_text15" fill="black"><text id="kity_text_105" text-rendering="inherit" font-size="24" dy=".8em" y="85.90000009536743" font-family="微软雅黑,Microsoft YaHei" x="644.5">UIInfo.cs</text></g><g id="node_priority7"><path id="kity_path_270" fill="#006300" stroke="none" d="M620,105c0,3.866,3.134,7,7,7h6c3.866,0,7,-3.134,7,-7V99H620V105z"></path><path id="kity_path_271" fill="#00AF00" stroke="none" d="M640,102c0,3.866,-3.134,7,-7,7H627c-3.866,0,-7,-3.134,-7,-7V99c0,-3.866,3.134,-7,7,-7h6c3.866,0,7,3.134,7,7V102z" opacity="0.8"></path><text id="kity_text_272" text-rendering="geometricPrecision" x="629" y="101.5" text-anchor="middle" font-style="italic" font-size="12" fill="white" dy="5">3</text></g></g><g id="minder_node17"><g id="node_expander15" style="cursor: pointer;"><path id="kity_path_193" fill="white" stroke="gray" d="M609.5,165.5A6,6,0,1,1,597.5,165.5A6,6,0,1,1,609.5,165.5"></path><path id="kity_path_194" fill="none" stroke="gray" d="M599,165.5L608,165.5"></path></g><path id="node_outline16" fill="none" stroke="none" d="M614.5,148.5h142a5,5,0,0,1,5,5v24a5,5,0,0,1,-5,5h-142a5,5,0,0,1,-5,-5v-24a5,5,0,0,1,5,-5z" stroke-width="3"></path><g id="node_text16" fill="black"><text id="kity_text_107" text-rendering="inherit" font-size="24" dy=".8em" y="149.90000009536743" font-family="微软雅黑,Microsoft YaHei" x="644.5">BaseUI.cs</text></g><g id="node_priority6"><path id="kity_path_265" fill="#006300" stroke="none" d="M620,169c0,3.866,3.134,7,7,7h6c3.866,0,7,-3.134,7,-7V163H620V169z"></path><path id="kity_path_266" fill="#00AF00" stroke="none" d="M640,166c0,3.866,-3.134,7,-7,7H627c-3.866,0,-7,-3.134,-7,-7V163c0,-3.866,3.134,-7,7,-7h6c3.866,0,7,3.134,7,7V166z" opacity="0.8"></path><text id="kity_text_267" text-rendering="geometricPrecision" x="629" y="165.5" text-anchor="middle" font-style="italic" font-size="12" fill="white" dy="5">3</text></g></g><g id="minder_node28"><g id="node_expander27" style="cursor: pointer;" display="none"><path id="kity_path_317" fill="white" stroke="gray" d="M802.5,37.5A6,6,0,1,1,790.5,37.5A6,6,0,1,1,802.5,37.5"></path><path id="kity_path_318" fill="none" stroke="gray"></path></g><path id="node_outline28" fill="none" stroke="none" d="M807.5,20.5h347a5,5,0,0,1,5,5v24a5,5,0,0,1,-5,5h-347a5,5,0,0,1,-5,-5v-24a5,5,0,0,1,5,-5z" stroke-width="3"></path><g id="node_text28" fill="black"><text id="kity_text_314" text-rendering="inherit" font-size="24" dy=".8em" y="21.90000009536743" x="812.5">枚举类，用于描述所有的UI类型</text></g></g><g id="minder_node29"><g id="node_expander28" style="cursor: pointer;" display="none"><path id="kity_path_325" fill="white" stroke="gray" d="M793.5,101.5A6,6,0,1,1,781.5,101.5A6,6,0,1,1,793.5,101.5"></path><path id="kity_path_326" fill="none" stroke="gray"></path></g><path id="node_outline29" fill="none" stroke="none" d="M798.5,84.5h348a5,5,0,0,1,5,5v24a5,5,0,0,1,-5,5h-348a5,5,0,0,1,-5,-5v-24a5,5,0,0,1,5,-5z" stroke-width="3"></path><g id="node_text29" fill="black"><text id="kity_text_322" text-rendering="inherit" font-size="24" dy=".8em" y="85.90000009536743" x="803.5">用于存储UI的类型以及路径信息</text></g></g><g id="minder_node30"><g id="node_expander29" style="cursor: pointer;" display="none"><path id="kity_path_333" fill="white" stroke="gray" d="M801.5,165.5A6,6,0,1,1,789.5,165.5A6,6,0,1,1,801.5,165.5"></path><path id="kity_path_334" fill="none" stroke="gray"></path></g><path id="node_outline30" fill="none" stroke="none" d="M806.5,148.5h180a5,5,0,0,1,5,5v24a5,5,0,0,1,-5,5h-180a5,5,0,0,1,-5,-5v-24a5,5,0,0,1,5,-5z" stroke-width="3"></path><g id="node_text30" fill="black"><text id="kity_text_330" text-rendering="inherit" font-size="24" dy=".8em" y="149.90000009536743" x="811.5">UI类的抽象基类</text></g></g><g id="minder_node31"><g id="node_expander30" style="cursor: pointer;" display="none"><path id="kity_path_341" fill="white" stroke="gray" d="M846.5,239.5A6,6,0,1,1,834.5,239.5A6,6,0,1,1,846.5,239.5"></path><path id="kity_path_342" fill="none" stroke="gray"></path></g><path id="node_outline31" fill="none" stroke="none" d="M851.5,222.5h156a5,5,0,0,1,5,5v24a5,5,0,0,1,-5,5h-156a5,5,0,0,1,-5,-5v-24a5,5,0,0,1,5,-5z" stroke-width="3"></path><g id="node_text31" fill="black"><text id="kity_text_338" text-rendering="inherit" font-size="24" dy=".8em" y="223.90000009536743" x="856.5">UI框架的核心</text></g></g><g id="minder_node32"><g id="node_expander31" style="cursor: pointer;" display="none"><path id="kity_path_349" fill="white" stroke="gray" d="M821.5,303.5A6,6,0,1,1,809.5,303.5A6,6,0,1,1,821.5,303.5"></path><path id="kity_path_350" fill="none" stroke="gray"></path></g><path id="node_outline32" fill="none" stroke="none" d="M826.5,286.5h202a5,5,0,0,1,5,5v24a5,5,0,0,1,-5,5h-202a5,5,0,0,1,-5,-5v-24a5,5,0,0,1,5,-5z" stroke-width="3"></path><g id="node_text32" fill="black"><text id="kity_text_346" text-rendering="inherit" font-size="24" dy=".8em" y="287.90000009536743" x="831.5">用于加载整个框架</text></g></g><g id="minder_node33"><g id="node_expander32" style="cursor: pointer;" display="none"><path id="kity_path_357" fill="white" stroke="gray" d="M835.5,377.5A6,6,0,1,1,823.5,377.5A6,6,0,1,1,835.5,377.5"></path><path id="kity_path_358" fill="none" stroke="gray"></path></g><path id="node_outline33" fill="none" stroke="none" d="M840.5,360.5h275a5,5,0,0,1,5,5v24a5,5,0,0,1,-5,5h-275a5,5,0,0,1,-5,-5v-24a5,5,0,0,1,5,-5z" stroke-width="3"></path><g id="node_text33" fill="black"><text id="kity_text_354" text-rendering="inherit" font-size="24" dy=".8em" y="361.90000009536743" x="845.5">每一个UI对象的挂载脚本</text></g></g><g id="minder_node34"><g id="node_expander33" style="cursor: pointer;" display="none"><path id="kity_path_365" fill="white" stroke="gray" d="M821.5,515.5A6,6,0,1,1,809.5,515.5A6,6,0,1,1,821.5,515.5"></path><path id="kity_path_366" fill="none" stroke="gray"></path></g><path id="node_outline34" fill="none" stroke="none" d="M826.5,498.5h265a5,5,0,0,1,5,5v24a5,5,0,0,1,-5,5h-265a5,5,0,0,1,-5,-5v-24a5,5,0,0,1,5,-5z" stroke-width="3"></path><g id="node_text34" fill="black"><text id="kity_text_362" text-rendering="inherit" font-size="24" dy=".8em" y="499.90000009536743" x="831.5">针对List的一些扩展方法</text></g></g></g></g></svg>